<svg xmlns="http://www.w3.org/2000/svg" viewBox="0 0 32 32" fill="none">
  <rect width="32" height="32" rx="8" fill="#F5F0E8"/>
  <!-- Fingerprint concentric arcs using accent-red color #B0392F -->
  <!-- Center dot -->
  <circle cx="16" cy="16" r="1.5" fill="#B0392F"/>
  <!-- Ring 1 -->
  <path d="M16 11.5 A4.5 4.5 0 0 1 20.5 16" stroke="#B0392F" stroke-width="1.4" stroke-linecap="round" fill="none"/>
  <path d="M11.5 16 A4.5 4.5 0 0 1 16 11.5" stroke="#B0392F" stroke-width="1.4" stroke-linecap="round" fill="none"/>
  <path d="M20.5 16 A4.5 4.5 0 0 1 13.5 20.1" stroke="#B0392F" stroke-width="1.4" stroke-linecap="round" fill="none"/>
  <path d="M13.5 20.1 A4.5 4.5 0 0 1 11.5 16" stroke="#B0392F" stroke-width="1.4" stroke-linecap="round" fill="none"/>
  <!-- Ring 2 -->
  <path d="M16 8 A8 8 0 0 1 24 16" stroke="#B0392F" stroke-width="1.4" stroke-linecap="round" fill="none"/>
  <path d="M8 16 A8 8 0 0 1 16 8" stroke="#B0392F" stroke-width="1.4" stroke-linecap="round" fill="none"/>
  <path d="M24 16 A8 8 0 0 1 10.5 22.5" stroke="#B0392F" stroke-width="1.4" stroke-linecap="round" fill="none"/>
  <path d="M10.5 22.5 A8 8 0 0 1 8 16" stroke="#B0392F" stroke-width="1.4" stroke-linecap="round" fill="none"/>
  <!-- Ring 3 -->
  <path d="M16 5 A11 11 0 0 1 27 16" stroke="#B0392F" stroke-width="1.3" stroke-linecap="round" fill="none" stroke-opacity="0.7"/>
  <path d="M5 16 A11 11 0 0 1 16 5" stroke="#B0392F" stroke-width="1.3" stroke-linecap="round" fill="none" stroke-opacity="0.7"/>
  <path d="M27 16 A11 11 0 0 1 8.5 24.5" stroke="#B0392F" stroke-width="1.3" stroke-linecap="round" fill="none" stroke-opacity="0.7"/>
  <path d="M8.5 24.5 A11 11 0 0 1 5 16" stroke="#B0392F" stroke-width="1.3" stroke-linecap="round" fill="none" stroke-opacity="0.7"/>
</svg>
